<svg width="25" height="24" viewBox="0 0 25 24" fill="none" xmlns="http://www.w3.org/2000/svg">
<path d="M7.16132 2.50415C7.90095 2.50415 8.42989 2.5047 8.84589 2.53442C9.2569 2.56381 9.51967 2.62023 9.7326 2.71313C10.3106 2.96534 10.7724 3.42617 11.0246 4.00415C11.1175 4.21714 11.1739 4.48064 11.2033 4.89185C11.233 5.30775 11.2326 5.83612 11.2326 6.57544C11.2326 7.31507 11.233 7.84401 11.2033 8.26001C11.1739 8.67098 11.1175 8.93381 11.0246 9.14673C10.7724 9.72481 10.3107 10.1865 9.7326 10.4387C9.51968 10.5316 9.25685 10.5881 8.84589 10.6174C8.42989 10.6472 7.90095 10.6467 7.16132 10.6467C6.422 10.6467 5.89363 10.6471 5.47772 10.6174C5.06652 10.5881 4.80302 10.5316 4.59003 10.4387C4.01205 10.1865 3.55122 9.7247 3.29901 9.14673C3.20611 8.93379 3.14969 8.67103 3.1203 8.26001C3.09058 7.84401 3.09003 7.31507 3.09003 6.57544C3.09003 5.83609 3.09061 5.30776 3.1203 4.89185C3.14968 4.48064 3.20608 4.21714 3.29901 4.00415C3.5512 3.42637 4.01225 2.96533 4.59003 2.71313C4.80302 2.62021 5.06652 2.5638 5.47772 2.53442C5.89364 2.50473 6.42197 2.50415 7.16132 2.50415Z" stroke="white"/>
<path d="M7.16132 13.3613C7.90095 13.3613 8.42989 13.3619 8.84589 13.3916C9.2569 13.421 9.51967 13.4774 9.7326 13.5703C10.3106 13.8225 10.7724 14.2834 11.0246 14.8613C11.1175 15.0743 11.1739 15.3378 11.2033 15.749C11.233 16.1649 11.2326 16.6933 11.2326 17.4326C11.2326 18.1723 11.233 18.7012 11.2033 19.1172C11.1739 19.5282 11.1175 19.791 11.0246 20.0039C10.7724 20.582 10.3107 21.0437 9.7326 21.2959C9.51968 21.3888 9.25685 21.4452 8.84589 21.4746C8.42989 21.5043 7.90095 21.5039 7.16132 21.5039C6.422 21.5039 5.89363 21.5043 5.47772 21.4746C5.06652 21.4452 4.80302 21.3888 4.59003 21.2959C4.01205 21.0437 3.55122 20.5819 3.29901 20.0039C3.20611 19.791 3.14969 19.5282 3.1203 19.1172C3.09058 18.7012 3.09003 18.1723 3.09003 17.4326C3.09003 16.6933 3.09061 16.1649 3.1203 15.749C3.14968 15.3378 3.20608 15.0743 3.29901 14.8613C3.5512 14.2835 4.01225 13.8225 4.59003 13.5703C4.80302 13.4774 5.06652 13.421 5.47772 13.3916C5.89364 13.3619 6.42197 13.3613 7.16132 13.3613Z" stroke="white"/>
<path d="M18.0182 2.50415C18.7579 2.50415 19.2868 2.5047 19.7028 2.53442C20.1138 2.56381 20.3766 2.62023 20.5895 2.71313C21.1675 2.96534 21.6293 3.42617 21.8815 4.00415C21.9745 4.21714 22.0309 4.48064 22.0602 4.89185C22.0899 5.30775 22.0895 5.83612 22.0895 6.57544C22.0895 7.31507 22.09 7.84401 22.0602 8.26001C22.0309 8.67098 21.9744 8.93381 21.8815 9.14673C21.6293 9.72481 21.1676 10.1865 20.5895 10.4387C20.3766 10.5316 20.1138 10.5881 19.7028 10.6174C19.2868 10.6472 18.7579 10.6467 18.0182 10.6467C17.2789 10.6467 16.7506 10.6471 16.3347 10.6174C15.9235 10.5881 15.66 10.5316 15.447 10.4387C14.869 10.1865 14.4082 9.7247 14.1559 9.14673C14.063 8.93379 14.0066 8.67103 13.9772 8.26001C13.9475 7.84401 13.947 7.31507 13.947 6.57544C13.947 5.83609 13.9475 5.30776 13.9772 4.89185C14.0066 4.48064 14.063 4.21714 14.1559 4.00415C14.4081 3.42637 14.8692 2.96533 15.447 2.71313C15.66 2.62021 15.9235 2.5638 16.3347 2.53442C16.7506 2.50473 17.2789 2.50415 18.0182 2.50415Z" stroke="white"/>
<path d="M18.0182 13.3613C18.7579 13.3613 19.2868 13.3619 19.7028 13.3916C20.1138 13.421 20.3766 13.4774 20.5895 13.5703C21.1675 13.8225 21.6293 14.2834 21.8815 14.8613C21.9745 15.0743 22.0309 15.3378 22.0602 15.749C22.0899 16.1649 22.0895 16.6933 22.0895 17.4326C22.0895 18.1723 22.09 18.7012 22.0602 19.1172C22.0309 19.5282 21.9744 19.791 21.8815 20.0039C21.6293 20.582 21.1676 21.0437 20.5895 21.2959C20.3766 21.3888 20.1138 21.4452 19.7028 21.4746C19.2868 21.5043 18.7579 21.5039 18.0182 21.5039C17.2789 21.5039 16.7506 21.5043 16.3347 21.4746C15.9235 21.4452 15.66 21.3888 15.447 21.2959C14.869 21.0437 14.4082 20.5819 14.1559 20.0039C14.063 19.791 14.0066 19.5282 13.9772 19.1172C13.9475 18.7012 13.947 18.1723 13.947 17.4326C13.947 16.6933 13.9475 16.1649 13.9772 15.749C14.0066 15.3378 14.063 15.0743 14.1559 14.8613C14.4081 14.2835 14.8692 13.8225 15.447 13.5703C15.66 13.4774 15.9235 13.421 16.3347 13.3916C16.7506 13.3619 17.2789 13.3613 18.0182 13.3613Z" stroke="white"/>
</svg>
